HIERARCHY
ROOT Hips
{
	OFFSET 0.000000 0.000000 0.000000 
	CHANNELS 6 Xposition Yposition Zposition Zrotation Yrotation Xrotation
	JOINT LeftUpLeg
	{
		OFFSET 1.363060 -1.794630 0.839290 
		CHANNELS 3 Zrotation Yrotation Xrotation
		JOINT LeftLeg
		{
			OFFSET 2.448110 -6.726130 0.000000 
			CHANNELS 3 Zrotation Yrotation Xrotation
			JOINT LeftFoot
			{
				OFFSET 2.562200 -7.039590 0.000000 
				CHANNELS 3 Zrotation Yrotation Xrotation
				JOINT LeftToeBase
				{
					OFFSET 0.157640 -0.433110 2.322550 
					CHANNELS 3 Zrotation Yrotation Xrotation
					End Site
					{
						OFFSET 0.000000 0.000000 0.000000 
					}
				}
			}
		}
	}
	JOINT RightUpLeg
	{
		OFFSET -1.305520 -1.794630 0.839290 
		CHANNELS 3 Zrotation Yrotation Xrotation
		JOINT RightLeg
		{
			OFFSET -2.542530 -6.985550 0.000000 
			CHANNELS 3 Zrotation Yrotation Xrotation
			JOINT RightFoot
			{
				OFFSET -2.568260 -7.056230 0.000000 
				CHANNELS 3 Zrotation Yrotation Xrotation
				JOINT RightToeBase
				{
					OFFSET -0.164730 -0.452590 2.363150 
					CHANNELS 3 Zrotation Yrotation Xrotation
					End Site
					{
						OFFSET 0.000000 0.000000 0.000000 
					}
				}
			}
		}
	}
	JOINT Spine
	{
		OFFSET 0.028270 2.035590 -0.193380 
		CHANNELS 3 Zrotation Yrotation Xrotation
		JOINT Spine1
		{
			OFFSET 0.056720 2.048850 -0.042750 
			CHANNELS 3 Zrotation Yrotation Xrotation
			JOINT Neck1
			{
				OFFSET -0.054170 1.746240 0.172020 
				CHANNELS 3 Zrotation Yrotation Xrotation
				JOINT Head
				{
					OFFSET 0.104070 1.761360 -0.123970 
					CHANNELS 3 Zrotation Yrotation Xrotation
					End Site
					{
						OFFSET 0.000000 0.000000 0.000000 
					}
				}
			}
			JOINT LeftArm
			{
				OFFSET 3.362410 1.200890 -0.311210 
				CHANNELS 3 Zrotation Yrotation Xrotation
				JOINT LeftForeArm
				{
					OFFSET 4.983000 -0.000000 -0.000000 
					CHANNELS 3 Zrotation Yrotation Xrotation
					JOINT LeftHand
					{
						OFFSET 3.483560 -0.000000 -0.000000 
						CHANNELS 3 Zrotation Yrotation Xrotation
						JOINT LeftHandIndex1
						{
							OFFSET 0.715260 -0.000000 -0.000000 
							CHANNELS 3 Zrotation Yrotation Xrotation
							End Site
							{
								OFFSET 0.000000 0.000000 0.000000 
							}
						}
					}
				}
			}
			JOINT RightArm
			{
				OFFSET -3.136600 1.374050 -0.404650 
				CHANNELS 3 Zrotation Yrotation Xrotation
				JOINT RightForeArm
				{
					OFFSET -5.241900 -0.000000 -0.000000 
					CHANNELS 3 Zrotation Yrotation Xrotation
					JOINT RightHand
					{
						OFFSET -3.444170 -0.000000 -0.000000 
						CHANNELS 3 Zrotation Yrotation Xrotation
						JOINT RightHandIndex1
						{
							OFFSET -0.622530 -0.000000 -0.000000 
							CHANNELS 3 Zrotation Yrotation Xrotation
							End Site
							{
								OFFSET 0.000000 0.000000 0.000000 
							}
						}
					}
				}
			}
		}
	}
}
MOTION
Frames: 10
Frame Time: 0.041667
32.277509 16.277643 -12.517260 167.034972 -78.356413 -163.664838 -16.855984 13.067550 -47.942974 5.638706 15.417338 45.154282 -2.429149 13.218503 4.706040 0.848000 5.873400 16.417500 21.897496 -17.480098 -23.588218 -9.935069 -18.852256 60.830378 -2.210583 2.676854 -27.902953 -0.046700 -1.394500 3.834900 -1.263356 3.305356 1.728254 -5.008456 1.840358 -2.790786 -6.137351 14.809475 8.855605 -2.140100 4.546300 13.511500 -63.936301 -10.173090 35.561332 32.844695 -43.955431 -15.396846 -0.407985 0.087384 -27.052905 -7.125000 0.000000 0.000000 59.183633 7.855934 29.674402 -25.233335 36.083523 -9.411553 1.339366 0.722033 -24.150162 7.125000 0.000000 0.000000 
32.161373 16.273208 -12.480413 168.548297 -78.736141 -164.950542 -16.665904 12.833397 -48.190399 5.830648 15.596849 45.939069 -2.337451 12.703501 4.232977 0.901500 6.050900 16.932300 22.008566 -17.339872 -23.420193 -9.963402 -18.876839 60.941268 -2.150426 2.183747 -27.784099 -0.014800 -0.785400 2.158500 -1.293081 3.406677 1.704529 -4.893733 1.881091 -2.634624 -4.901607 12.602657 8.906234 -1.640500 3.625000 13.368600 -63.777606 -10.566896 35.542360 32.644760 -43.770363 -15.227644 -0.398040 0.074103 -26.785711 -7.125000 0.000000 0.000000 59.172191 7.992052 29.857198 -25.113469 35.975862 -9.324298 1.341651 0.705341 -24.187729 7.125000 0.000000 0.000000 
32.042597 16.268563 -12.443883 169.644839 -79.065188 -165.837220 -16.594677 12.679773 -48.451244 6.029567 15.778750 46.746145 -2.237475 12.159381 3.757028 0.945300 6.192400 17.343600 21.936099 -17.146775 -22.987557 -9.977654 -18.884095 60.981176 -2.162770 2.557937 -27.637538 -0.031600 -1.147600 3.155100 -1.366723 3.560740 1.767809 -4.894830 1.951110 -2.279730 -3.769148 10.249695 8.782299 -1.231900 2.679200 13.216000 -63.435961 -11.206486 35.740559 32.536418 -43.647355 -15.131517 -0.390762 0.091583 -26.749064 -7.125000 0.000000 0.000000 59.318483 8.235409 29.716859 -25.216004 36.074106 -9.400955 1.357707 0.707683 -24.108205 7.125000 0.000000 0.000000 
31.922027 16.273736 -12.410309 169.931188 -79.312321 -165.948645 -16.729676 12.676146 -48.704031 6.221262 15.957760 47.534872 -2.119661 11.546231 3.274347 0.985700 6.319400 17.713900 21.711674 -17.137971 -22.657416 -9.978838 -18.867934 60.982998 -2.116672 2.207413 -27.522230 -0.006900 -0.535200 1.470700 -1.355380 3.539790 1.797316 -4.294123 1.882126 -2.065740 -2.505642 7.931912 8.464212 -0.644300 1.753300 12.905300 -63.644970 -11.303797 35.449347 32.832801 -43.844695 -15.364890 -0.419643 0.108609 -26.495287 -7.125000 0.000000 0.000000 58.953848 8.543419 30.388911 -25.177921 36.027438 -9.346194 1.361134 0.710878 -24.240731 7.125000 0.000000 0.000000 
31.803462 16.271941 -12.378108 170.916547 -79.582538 -166.741989 -16.717366 12.646998 -48.943517 6.411930 16.120328 48.290676 -2.004017 10.952610 2.827747 1.045500 6.502500 18.249700 21.635350 -17.101662 -22.303123 -9.962774 -18.852347 60.931785 -2.084294 1.948053 -27.452388 -0.000200 0.091800 -0.252300 -1.365791 3.617974 1.814108 -3.883451 1.877998 -1.959223 -1.302905 5.465033 8.065286 -0.148700 0.796400 12.601100 -63.656492 -11.377905 35.391851 33.189160 -44.082453 -15.640302 -0.448342 0.128659 -26.480861 -7.125000 0.000000 0.000000 58.718926 8.803849 30.970281 -24.971160 35.840106 -9.184014 1.353722 0.696123 -24.484749 7.125000 0.000000 0.000000 
31.695561 16.263918 -12.345695 172.904947 -79.896852 -168.440775 -16.518487 12.491838 -49.264438 6.593600 16.262175 48.979056 -1.901784 10.450849 2.540952 1.062800 6.554300 18.401500 21.782998 -16.937547 -22.023340 -9.936904 -18.845697 60.851324 -2.069495 1.927203 -27.362028 -0.003900 0.403200 -1.107900 -1.412930 3.734127 1.802051 -3.704851 1.911128 -2.066114 0.190212 2.872425 7.344168 0.537000 -0.156700 12.143100 -63.494436 -11.546847 35.443807 33.391838 -44.195957 -15.786562 -0.448550 0.140509 -26.684472 -7.125000 0.000000 0.000000 58.854056 9.070623 31.055080 -25.262926 36.082247 -9.331730 1.354748 0.687514 -24.412190 7.125000 0.000000 0.000000 
31.589349 16.262334 -12.311699 174.462640 -80.183270 -169.820795 -16.392254 12.346192 -49.444700 6.755102 16.393934 49.602681 -1.798957 9.946709 2.217782 1.069900 6.575600 18.463900 21.819237 -16.881386 -21.675912 -9.898060 -18.821016 60.728851 -1.999268 1.543240 -27.106081 -0.015300 0.799800 -2.198200 -1.429862 3.752690 1.703088 -3.400097 1.892257 -2.449323 1.591258 0.574408 7.109251 1.161900 -1.027600 12.083400 -63.558447 -11.170990 35.295622 33.625723 -44.352498 -15.964918 -0.442297 0.137111 -26.619882 -7.125000 0.000000 0.000000 58.817924 8.700472 31.594565 -25.807904 36.562758 -9.619928 1.350745 0.686272 -24.558071 7.125000 0.000000 0.000000 
31.477014 16.265290 -12.275591 175.204733 -80.513503 -170.475903 -16.397226 12.180707 -49.427233 6.887281 16.522858 50.151252 -1.694580 9.425001 1.729618 1.122700 6.730400 18.919100 21.647135 -17.058236 -21.183312 -9.846330 -18.775239 60.555122 -1.912219 1.152599 -26.727500 -0.030200 1.121100 -3.082000 -1.452855 3.704937 1.698565 -3.115798 1.837467 -2.557242 2.750401 -1.597826 6.873710 1.618500 -1.859500 12.080500 -63.610659 -11.034070 35.089590 33.609830 -44.348894 -15.971941 -0.434462 0.142517 -26.461307 -7.125000 0.000000 0.000000 58.809121 9.162261 32.113901 -25.819047 36.548463 -9.585385 1.360482 0.668562 -24.630167 7.125000 0.000000 0.000000 
31.367952 16.268246 -12.237688 176.087576 -80.954382 -171.160984 -16.404641 11.870988 -49.476817 6.995382 16.642885 50.615059 -1.603931 8.985218 1.302977 1.164900 6.851600 19.276400 21.492877 -17.271886 -20.785083 -9.799012 -18.727783 60.383719 -1.882047 1.229814 -26.449350 -0.035700 1.219100 -3.351900 -1.472990 3.607184 1.734167 -2.887234 1.760550 -2.538129 3.799719 -3.749244 6.596654 1.973300 -2.684100 12.131700 -63.584624 -11.182421 34.927758 33.299590 -44.143441 -15.764169 -0.432662 0.151509 -26.438274 -7.125000 0.000000 0.000000 58.775737 9.548899 32.551047 -26.048043 36.724697 -9.686767 1.363670 0.674682 -24.792941 7.125000 0.000000 0.000000 
31.265646 16.270147 -12.201897 177.669086 -81.408142 -172.527034 -16.312516 11.517016 -49.590406 7.101396 16.754344 51.046671 -1.535546 8.661659 0.992430 1.159400 6.835900 19.230100 21.507721 -17.323488 -20.425273 -9.745952 -18.692437 60.202330 -1.865380 1.278977 -26.291989 -0.044100 1.355700 -3.728000 -1.478733 3.529073 1.771568 -2.703093 1.697059 -2.526445 4.689506 -5.512350 6.393922 2.250300 -3.351400 12.284500 -63.503545 -11.411355 34.810176 32.975964 -43.907388 -15.516080 -0.451558 0.118779 -26.440353 -7.125000 0.000000 0.000000 58.733789 9.882822 32.856416 -26.504226 37.080172 -9.925972 1.361147 0.697937 -24.998990 7.125000 0.000000 0.000000 
